<mxfile host="app.diagrams.net" modified="2024-04-17T10:15:12.610Z" agent="Mozilla/5.0 (Windows NT 10.0; Win64; x64) AppleWebKit/537.36 (KHTML, like Gecko) Chrome/123.0.0.0 Safari/537.36" etag="YneTi-XtMjMye9E8ymPG" version="24.2.5" type="device">
  <diagram id="R2lEEEUBdFMjLlhIrx00" name="Page-1">
    <mxGraphModel dx="1132" dy="621" grid="1" gridSize="10" guides="1" tooltips="1" connect="1" arrows="1" fold="1" page="1" pageScale="1" pageWidth="850" pageHeight="1100" math="0" shadow="0" extFonts="Permanent Marker^https://fonts.googleapis.com/css?family=Permanent+Marker">
      <root>
        <mxCell id="0" />
        <mxCell id="1" parent="0" />
        <mxCell id="MwNaQ1A6uIWa5wp6W2I6-2" value="&lt;font style=&quot;font-size: 18px;&quot;&gt;Pjesma&lt;/font&gt;" style="whiteSpace=wrap;html=1;align=center;" parent="1" vertex="1">
          <mxGeometry x="140" y="110" width="100" height="40" as="geometry" />
        </mxCell>
        <mxCell id="MwNaQ1A6uIWa5wp6W2I6-3" value="ID" style="ellipse;whiteSpace=wrap;html=1;align=center;fontStyle=4;" parent="1" vertex="1">
          <mxGeometry x="40" y="110" width="60" height="40" as="geometry" />
        </mxCell>
        <mxCell id="MwNaQ1A6uIWa5wp6W2I6-4" value="naziv" style="ellipse;whiteSpace=wrap;html=1;align=center;" parent="1" vertex="1">
          <mxGeometry x="50" y="40" width="80" height="40" as="geometry" />
        </mxCell>
        <mxCell id="MwNaQ1A6uIWa5wp6W2I6-6" value="Lajkovano" style="ellipse;whiteSpace=wrap;html=1;align=center;" parent="1" vertex="1">
          <mxGeometry x="150" y="40" width="100" height="40" as="geometry" />
        </mxCell>
        <mxCell id="MwNaQ1A6uIWa5wp6W2I6-7" value="Izvodjac" style="whiteSpace=wrap;html=1;align=center;" parent="1" vertex="1">
          <mxGeometry x="403.92" y="230" width="100" height="40" as="geometry" />
        </mxCell>
        <mxCell id="MwNaQ1A6uIWa5wp6W2I6-9" value="&lt;font style=&quot;font-size: 14px;&quot;&gt;Korisnik&lt;/font&gt;" style="whiteSpace=wrap;html=1;align=center;" parent="1" vertex="1">
          <mxGeometry x="650" y="90" width="100" height="40" as="geometry" />
        </mxCell>
        <mxCell id="MwNaQ1A6uIWa5wp6W2I6-11" value="username" style="ellipse;whiteSpace=wrap;html=1;align=center;fontStyle=4;" parent="1" vertex="1">
          <mxGeometry x="510" y="10" width="80" height="30" as="geometry" />
        </mxCell>
        <mxCell id="MwNaQ1A6uIWa5wp6W2I6-12" value="password" style="ellipse;whiteSpace=wrap;html=1;align=center;" parent="1" vertex="1">
          <mxGeometry x="600" y="12.5" width="80" height="25" as="geometry" />
        </mxCell>
        <mxCell id="MwNaQ1A6uIWa5wp6W2I6-13" style="edgeStyle=orthogonalEdgeStyle;rounded=0;orthogonalLoop=1;jettySize=auto;html=1;exitX=0.5;exitY=1;exitDx=0;exitDy=0;" parent="1" source="MwNaQ1A6uIWa5wp6W2I6-11" target="MwNaQ1A6uIWa5wp6W2I6-11" edge="1">
          <mxGeometry relative="1" as="geometry" />
        </mxCell>
        <mxCell id="MwNaQ1A6uIWa5wp6W2I6-14" value="slika" style="ellipse;whiteSpace=wrap;html=1;align=center;" parent="1" vertex="1">
          <mxGeometry x="690" y="12.5" width="70" height="25" as="geometry" />
        </mxCell>
        <mxCell id="MwNaQ1A6uIWa5wp6W2I6-15" value="email" style="ellipse;whiteSpace=wrap;html=1;align=center;" parent="1" vertex="1">
          <mxGeometry x="770" y="10" width="70" height="30" as="geometry" />
        </mxCell>
        <mxCell id="MwNaQ1A6uIWa5wp6W2I6-16" value="ime" style="ellipse;whiteSpace=wrap;html=1;align=center;fontStyle=4;" parent="1" vertex="1">
          <mxGeometry x="413.91999999999996" y="170" width="80" height="30" as="geometry" />
        </mxCell>
        <mxCell id="MwNaQ1A6uIWa5wp6W2I6-17" value="Zanr" style="whiteSpace=wrap;html=1;align=center;" parent="1" vertex="1">
          <mxGeometry x="140" y="250" width="100" height="40" as="geometry" />
        </mxCell>
        <mxCell id="MwNaQ1A6uIWa5wp6W2I6-18" value="naziv" style="ellipse;whiteSpace=wrap;html=1;align=center;fontStyle=4;" parent="1" vertex="1">
          <mxGeometry x="160" y="310" width="60" height="30" as="geometry" />
        </mxCell>
        <mxCell id="MwNaQ1A6uIWa5wp6W2I6-21" value="" style="endArrow=none;html=1;rounded=0;exitX=0.5;exitY=0;exitDx=0;exitDy=0;endFill=0;startArrow=classic;startFill=1;entryX=0.5;entryY=1;entryDx=0;entryDy=0;" parent="1" source="MwNaQ1A6uIWa5wp6W2I6-17" target="MwNaQ1A6uIWa5wp6W2I6-20" edge="1">
          <mxGeometry relative="1" as="geometry">
            <mxPoint x="180" y="210" as="sourcePoint" />
            <mxPoint x="160" y="200" as="targetPoint" />
          </mxGeometry>
        </mxCell>
        <mxCell id="MwNaQ1A6uIWa5wp6W2I6-20" value="" style="shape=rhombus;perimeter=rhombusPerimeter;whiteSpace=wrap;html=1;align=center;" parent="1" vertex="1">
          <mxGeometry x="170" y="180" width="40" height="40" as="geometry" />
        </mxCell>
        <mxCell id="MwNaQ1A6uIWa5wp6W2I6-22" value="" style="shape=link;html=1;rounded=0;entryX=0.5;entryY=0;entryDx=0;entryDy=0;exitX=0.5;exitY=1;exitDx=0;exitDy=0;width=4.800000000000001;" parent="1" source="MwNaQ1A6uIWa5wp6W2I6-2" target="MwNaQ1A6uIWa5wp6W2I6-20" edge="1">
          <mxGeometry relative="1" as="geometry">
            <mxPoint x="218.95" y="151.22" as="sourcePoint" />
            <mxPoint x="221.05" y="178.78000000000006" as="targetPoint" />
          </mxGeometry>
        </mxCell>
        <mxCell id="MwNaQ1A6uIWa5wp6W2I6-26" value="" style="endArrow=none;html=1;rounded=0;entryX=0;entryY=0.25;entryDx=0;entryDy=0;exitX=1;exitY=0.5;exitDx=0;exitDy=0;" parent="1" source="MwNaQ1A6uIWa5wp6W2I6-25" target="MwNaQ1A6uIWa5wp6W2I6-7" edge="1">
          <mxGeometry relative="1" as="geometry">
            <mxPoint x="240" y="150" as="sourcePoint" />
            <mxPoint x="400" y="150" as="targetPoint" />
          </mxGeometry>
        </mxCell>
        <mxCell id="MwNaQ1A6uIWa5wp6W2I6-28" value="" style="endArrow=none;html=1;rounded=0;entryX=0;entryY=0.25;entryDx=0;entryDy=0;exitX=1;exitY=1;exitDx=0;exitDy=0;" parent="1" source="MwNaQ1A6uIWa5wp6W2I6-2" target="MwNaQ1A6uIWa5wp6W2I6-25" edge="1">
          <mxGeometry relative="1" as="geometry">
            <mxPoint x="240" y="150" as="sourcePoint" />
            <mxPoint x="390" y="210" as="targetPoint" />
          </mxGeometry>
        </mxCell>
        <mxCell id="MwNaQ1A6uIWa5wp6W2I6-25" value="&lt;font style=&quot;font-size: 13px;&quot;&gt;izvodi&lt;/font&gt;" style="shape=rhombus;perimeter=rhombusPerimeter;whiteSpace=wrap;html=1;align=center;rotation=45;" parent="1" vertex="1">
          <mxGeometry x="280.27" y="160" width="71.46" height="50" as="geometry" />
        </mxCell>
        <mxCell id="MwNaQ1A6uIWa5wp6W2I6-29" value="trajanje" style="ellipse;whiteSpace=wrap;html=1;align=center;" parent="1" vertex="1">
          <mxGeometry x="266" y="40" width="100" height="40" as="geometry" />
        </mxCell>
        <mxCell id="MwNaQ1A6uIWa5wp6W2I6-30" value="" style="endArrow=none;html=1;rounded=0;entryX=0;entryY=0.5;entryDx=0;entryDy=0;exitX=1;exitY=0.5;exitDx=0;exitDy=0;" parent="1" source="MwNaQ1A6uIWa5wp6W2I6-32" target="MwNaQ1A6uIWa5wp6W2I6-9" edge="1">
          <mxGeometry relative="1" as="geometry">
            <mxPoint x="510" y="130" as="sourcePoint" />
            <mxPoint x="619.2000000000003" y="73.02" as="targetPoint" />
          </mxGeometry>
        </mxCell>
        <mxCell id="MwNaQ1A6uIWa5wp6W2I6-31" value="" style="endArrow=none;html=1;rounded=0;exitX=0.999;exitY=0.391;exitDx=0;exitDy=0;exitPerimeter=0;entryX=0;entryY=0.5;entryDx=0;entryDy=0;" parent="1" source="MwNaQ1A6uIWa5wp6W2I6-2" target="MwNaQ1A6uIWa5wp6W2I6-32" edge="1">
          <mxGeometry relative="1" as="geometry">
            <mxPoint x="230.00000000000006" y="119.58" as="sourcePoint" />
            <mxPoint x="370" y="100" as="targetPoint" />
          </mxGeometry>
        </mxCell>
        <mxCell id="MwNaQ1A6uIWa5wp6W2I6-32" value="&lt;span style=&quot;font-size: 13px;&quot;&gt;Library&lt;/span&gt;" style="shape=rhombus;perimeter=rhombusPerimeter;whiteSpace=wrap;html=1;align=center;rotation=0;" parent="1" vertex="1">
          <mxGeometry x="410.99999999999994" y="80" width="78.04" height="60" as="geometry" />
        </mxCell>
        <mxCell id="MwNaQ1A6uIWa5wp6W2I6-37" value="je_admin" style="ellipse;whiteSpace=wrap;html=1;align=center;" parent="1" vertex="1">
          <mxGeometry x="680" y="170" width="80" height="30" as="geometry" />
        </mxCell>
        <mxCell id="MwNaQ1A6uIWa5wp6W2I6-38" value="" style="endArrow=none;html=1;rounded=0;exitX=0.5;exitY=1;exitDx=0;exitDy=0;entryX=0;entryY=0;entryDx=0;entryDy=0;" parent="1" source="MwNaQ1A6uIWa5wp6W2I6-4" target="MwNaQ1A6uIWa5wp6W2I6-2" edge="1">
          <mxGeometry relative="1" as="geometry">
            <mxPoint x="140" y="190" as="sourcePoint" />
            <mxPoint x="300" y="190" as="targetPoint" />
          </mxGeometry>
        </mxCell>
        <mxCell id="MwNaQ1A6uIWa5wp6W2I6-39" value="" style="endArrow=none;html=1;rounded=0;exitX=0.5;exitY=1;exitDx=0;exitDy=0;entryX=0.5;entryY=0;entryDx=0;entryDy=0;" parent="1" source="MwNaQ1A6uIWa5wp6W2I6-6" target="MwNaQ1A6uIWa5wp6W2I6-2" edge="1">
          <mxGeometry relative="1" as="geometry">
            <mxPoint x="160" y="80" as="sourcePoint" />
            <mxPoint x="210" y="110" as="targetPoint" />
          </mxGeometry>
        </mxCell>
        <mxCell id="MwNaQ1A6uIWa5wp6W2I6-40" value="" style="endArrow=none;html=1;rounded=0;exitX=1;exitY=0.5;exitDx=0;exitDy=0;entryX=0;entryY=0.5;entryDx=0;entryDy=0;" parent="1" source="MwNaQ1A6uIWa5wp6W2I6-3" target="MwNaQ1A6uIWa5wp6W2I6-2" edge="1">
          <mxGeometry relative="1" as="geometry">
            <mxPoint x="90" y="100" as="sourcePoint" />
            <mxPoint x="140" y="130" as="targetPoint" />
          </mxGeometry>
        </mxCell>
        <mxCell id="MwNaQ1A6uIWa5wp6W2I6-41" value="" style="endArrow=none;html=1;rounded=0;exitX=0.5;exitY=1;exitDx=0;exitDy=0;entryX=0.75;entryY=0;entryDx=0;entryDy=0;" parent="1" source="MwNaQ1A6uIWa5wp6W2I6-29" target="MwNaQ1A6uIWa5wp6W2I6-2" edge="1">
          <mxGeometry relative="1" as="geometry">
            <mxPoint x="100" y="90" as="sourcePoint" />
            <mxPoint x="150" y="120" as="targetPoint" />
          </mxGeometry>
        </mxCell>
        <mxCell id="MwNaQ1A6uIWa5wp6W2I6-43" value="" style="endArrow=none;html=1;rounded=0;exitX=0.793;exitY=0.876;exitDx=0;exitDy=0;entryX=0;entryY=0.25;entryDx=0;entryDy=0;exitPerimeter=0;" parent="1" source="MwNaQ1A6uIWa5wp6W2I6-11" target="MwNaQ1A6uIWa5wp6W2I6-9" edge="1">
          <mxGeometry relative="1" as="geometry">
            <mxPoint x="580" y="37.5" as="sourcePoint" />
            <mxPoint x="630" y="67.5" as="targetPoint" />
          </mxGeometry>
        </mxCell>
        <mxCell id="MwNaQ1A6uIWa5wp6W2I6-44" value="" style="endArrow=none;html=1;rounded=0;exitX=0.5;exitY=1;exitDx=0;exitDy=0;entryX=0.25;entryY=0;entryDx=0;entryDy=0;" parent="1" source="MwNaQ1A6uIWa5wp6W2I6-12" target="MwNaQ1A6uIWa5wp6W2I6-9" edge="1">
          <mxGeometry relative="1" as="geometry">
            <mxPoint x="620" y="50" as="sourcePoint" />
            <mxPoint x="680" y="50" as="targetPoint" />
          </mxGeometry>
        </mxCell>
        <mxCell id="MwNaQ1A6uIWa5wp6W2I6-45" value="" style="endArrow=none;html=1;rounded=0;exitX=0.387;exitY=0.97;exitDx=0;exitDy=0;entryX=0.5;entryY=0;entryDx=0;entryDy=0;exitPerimeter=0;" parent="1" source="MwNaQ1A6uIWa5wp6W2I6-14" target="MwNaQ1A6uIWa5wp6W2I6-9" edge="1">
          <mxGeometry relative="1" as="geometry">
            <mxPoint x="650" y="48" as="sourcePoint" />
            <mxPoint x="665" y="70" as="targetPoint" />
          </mxGeometry>
        </mxCell>
        <mxCell id="MwNaQ1A6uIWa5wp6W2I6-46" value="" style="endArrow=none;html=1;rounded=0;exitX=0;exitY=1;exitDx=0;exitDy=0;entryX=1;entryY=0;entryDx=0;entryDy=0;" parent="1" source="MwNaQ1A6uIWa5wp6W2I6-15" target="MwNaQ1A6uIWa5wp6W2I6-9" edge="1">
          <mxGeometry relative="1" as="geometry">
            <mxPoint x="760" y="46" as="sourcePoint" />
            <mxPoint x="817" y="80" as="targetPoint" />
          </mxGeometry>
        </mxCell>
        <mxCell id="MwNaQ1A6uIWa5wp6W2I6-47" value="" style="endArrow=none;html=1;rounded=0;exitX=0.5;exitY=1;exitDx=0;exitDy=0;entryX=0.5;entryY=0;entryDx=0;entryDy=0;" parent="1" source="MwNaQ1A6uIWa5wp6W2I6-9" target="MwNaQ1A6uIWa5wp6W2I6-37" edge="1">
          <mxGeometry relative="1" as="geometry">
            <mxPoint x="650" y="105" as="sourcePoint" />
            <mxPoint x="700" y="115" as="targetPoint" />
          </mxGeometry>
        </mxCell>
        <mxCell id="MwNaQ1A6uIWa5wp6W2I6-48" value="" style="endArrow=none;html=1;rounded=0;exitX=0.5;exitY=1;exitDx=0;exitDy=0;entryX=0.5;entryY=0;entryDx=0;entryDy=0;" parent="1" source="MwNaQ1A6uIWa5wp6W2I6-16" target="MwNaQ1A6uIWa5wp6W2I6-7" edge="1">
          <mxGeometry relative="1" as="geometry">
            <mxPoint x="580" y="150" as="sourcePoint" />
            <mxPoint x="440" y="200" as="targetPoint" />
          </mxGeometry>
        </mxCell>
        <mxCell id="MwNaQ1A6uIWa5wp6W2I6-49" value="" style="endArrow=none;html=1;rounded=0;exitX=0.5;exitY=1;exitDx=0;exitDy=0;entryX=0.5;entryY=0;entryDx=0;entryDy=0;" parent="1" source="MwNaQ1A6uIWa5wp6W2I6-17" target="MwNaQ1A6uIWa5wp6W2I6-18" edge="1">
          <mxGeometry relative="1" as="geometry">
            <mxPoint x="250" y="280" as="sourcePoint" />
            <mxPoint x="250" y="330" as="targetPoint" />
          </mxGeometry>
        </mxCell>
        <mxCell id="VKFP-JDBoQ5bNDpIp4uk-1" value="putanja" style="ellipse;whiteSpace=wrap;html=1;align=center;" parent="1" vertex="1">
          <mxGeometry x="40" y="165" width="70" height="35" as="geometry" />
        </mxCell>
        <mxCell id="VKFP-JDBoQ5bNDpIp4uk-2" value="ocjena" style="ellipse;whiteSpace=wrap;html=1;align=center;" parent="1" vertex="1">
          <mxGeometry x="60" y="210" width="80" height="30" as="geometry" />
        </mxCell>
        <mxCell id="VKFP-JDBoQ5bNDpIp4uk-3" value="" style="endArrow=none;html=1;rounded=0;exitX=1;exitY=0;exitDx=0;exitDy=0;entryX=0;entryY=1;entryDx=0;entryDy=0;" parent="1" source="VKFP-JDBoQ5bNDpIp4uk-1" target="MwNaQ1A6uIWa5wp6W2I6-2" edge="1">
          <mxGeometry relative="1" as="geometry">
            <mxPoint x="110" y="140" as="sourcePoint" />
            <mxPoint x="150" y="140" as="targetPoint" />
          </mxGeometry>
        </mxCell>
        <mxCell id="VKFP-JDBoQ5bNDpIp4uk-4" value="" style="endArrow=none;html=1;rounded=0;exitX=1;exitY=0;exitDx=0;exitDy=0;entryX=0.25;entryY=1;entryDx=0;entryDy=0;" parent="1" source="VKFP-JDBoQ5bNDpIp4uk-2" target="MwNaQ1A6uIWa5wp6W2I6-2" edge="1">
          <mxGeometry relative="1" as="geometry">
            <mxPoint x="110" y="180" as="sourcePoint" />
            <mxPoint x="150" y="160" as="targetPoint" />
          </mxGeometry>
        </mxCell>
        <mxCell id="fwHmDDN-cfbDdx1KF0Lg-1" value="broj pjesama u library da se preko nekog counta vrati" style="shape=note;size=20;whiteSpace=wrap;html=1;" vertex="1" parent="1">
          <mxGeometry x="610" y="340" width="100" height="100" as="geometry" />
        </mxCell>
      </root>
    </mxGraphModel>
  </diagram>
</mxfile>
